<?xml version="1.0" encoding="UTF-8"?>
<svg id="Layer_2" data-name="Layer 2" xmlns="http://www.w3.org/2000/svg" viewBox="0 0 819.25 121.67">
  <defs>
    <style>
      .cls-1 {
        fill: #d6001c;
      }
    </style>
  </defs>
  <g id="Layer_1-2" data-name="Layer 1">
    <g>
      <polygon class="cls-1" points="36.36 0 0 0 0 121.67 102.65 121.67 118.31 103.77 36.36 103.77 36.36 0"/>
      <rect class="cls-1" x="140.69" width="36.36" height="121.67"/>
      <polygon class="cls-1" points="305.44 65.73 205.3 0 205.3 121.67 241.66 121.67 241.66 55.38 341.24 121.67 341.24 0 305.44 0 305.44 65.73"/>
      <polygon class="cls-1" points="462.63 0 417.88 51.19 400.26 51.19 400.26 0 364.17 0 364.17 121.67 400.26 121.67 400.26 69.09 417.88 69.09 463.75 121.67 503.75 121.67 450.88 59.58 503.75 0 462.63 0"/>
      <polygon class="cls-1" points="657.31 103.21 657.31 51.75 557.17 51.75 557.17 26.85 565 17.9 646.12 17.9 661.5 0 537.31 0 520.81 19.3 520.81 69.65 620.38 69.65 620.38 96.22 613.95 103.77 516.06 103.77 531.72 121.67 641.36 121.67 657.31 103.21"/>
      <polygon class="cls-1" points="725.83 121.67 762.2 121.67 762.2 64.33 819.25 0 777.3 0 744.02 37.48 710.73 0 668.77 0 725.83 64.33 725.83 121.67"/>
    </g>
  </g>
</svg>